<svg xmlns="http://www.w3.org/2000/svg" viewBox="0 0 45 45" class="feature-icon-svgs x-hidden-focus"><path d="M22.38 34a15.68 15.68 0 01-3.99-.516 16.574 16.574 0 01-7.01-3.807c-1-.912-1.847-1.943-2.54-3.093a2 2 0 01.27-2.557c.193-.185.413-.33.66-.436.246-.105.51-.159.79-.159.373 0 .706.086 1 .258.293.172.546.41.76.714 1.253 1.798 2.723 3.166 4.41 4.104 1.686.939 3.656 1.408 5.91 1.408 2.133 0 4.043-.492 5.73-1.477 1.686-.985 3.123-2.33 4.31-4.035.2-.291.436-.525.71-.704.273-.178.596-.268.97-.268.6 0 1.106.185 1.52.555.413.371.62.866.62 1.487 0 .198-.027.38-.08.545a2.382 2.382 0 01-.24.506 8.897 8.897 0 01-1.15 1.626c-.447.503-.91.985-1.39 1.447a15.888 15.888 0 01-5.2 3.281A16.654 16.654 0 0122.38 34zM18.3 14.252c0 .436-.087.853-.26 1.249a3.423 3.423 0 01-.7 1.041 3.292 3.292 0 01-1.03.704 3.138 3.138 0 01-1.27.258c-.454 0-.877-.086-1.27-.258a3.308 3.308 0 01-1.73-1.715 3.052 3.052 0 01-.26-1.259c0-.449.083-.872.25-1.269a3.24 3.24 0 011.72-1.745A3.131 3.131 0 0115.02 11c.453 0 .876.086 1.27.258a3.39 3.39 0 011.75 1.735c.173.39.26.81.26 1.259zm8.4 0c0-.449.086-.872.26-1.269.173-.397.406-.74.7-1.031.293-.291.64-.522 1.04-.694S29.526 11 29.98 11c.453 0 .876.086 1.27.258a3.275 3.275 0 011.72 1.735c.166.39.25.81.25 1.259 0 .45-.087.869-.26 1.259-.174.39-.407.734-.7 1.031a3.292 3.292 0 01-1.03.704 3.138 3.138 0 01-1.27.258c-.454 0-.877-.086-1.27-.258a3.252 3.252 0 01-1.03-.704 3.426 3.426 0 01-.7-1.031 3.052 3.052 0 01-.26-1.259z" fill="#0078d4"/></svg>